<svg width="116" height="117" viewBox="0 0 116 117" fill="none" xmlns="http://www.w3.org/2000/svg">
<path d="M11.1275 31.855H32.331C30.2244 39.6828 29.0195 48.5658 29.0195 58H31.8545C31.8545 48.5106 33.0712 39.6001 35.1817 31.855H56.582V58H59.417V31.855H80.8173C82.9278 39.6001 84.1445 48.5106 84.1445 58H86.9835C86.9835 48.5658 85.7786 39.6828 83.676 31.855H104.875C109.215 39.6001 111.711 48.5106 111.711 58H114.55C114.55 26.8229 89.1845 1.45752 58.0074 1.45752C26.8303 1.45752 1.45703 26.8229 1.45703 58H4.29203C4.29203 48.5106 6.78841 39.6001 11.1275 31.855ZM36.0204 29.02C40.4343 14.9395 47.955 5.39502 56.582 4.43821V29.02H36.0204ZM59.417 29.02V4.43821C68.0441 5.39502 75.5608 14.9395 79.9787 29.02H59.417ZM103.147 29.02H82.8373C79.5416 18.314 74.4977 9.91133 68.4615 5.33202C82.9869 8.21427 95.39 16.9791 103.147 29.02ZM47.5376 5.33202C41.5053 9.91133 36.4575 18.314 33.1657 29.02H12.8522C20.609 16.9791 33.0122 8.21427 47.5376 5.33202ZM84.1445 69.8125V71.9388L69.812 68.395H58.9878C56.7356 68.395 54.5621 69.214 52.8729 70.6985L51.0065 72.3325H31.8545V69.8125C31.8545 69.029 31.2206 68.395 30.437 68.395H2.87453V71.234H29.0195V103.833H2.87453V106.671H30.437C31.2206 106.671 31.8545 106.038 31.8545 105.254V102.734H35.6109L44.0687 114.712C45.1239 115.889 46.5887 116.496 48.0652 116.496C49.1362 116.496 50.2112 116.177 51.1443 115.519L53.6762 113.739C53.8258 113.794 53.9439 113.905 54.1014 113.948C54.5621 114.066 55.0267 114.129 55.4874 114.129C56.4167 114.129 57.3341 113.885 58.157 113.405L61.433 111.515C62.0315 111.735 62.6497 111.889 63.2915 111.889C64.1972 111.889 65.1185 111.656 65.9612 111.172L69.2411 109.278C69.8396 109.499 70.4578 109.652 71.0996 109.652C72.0052 109.652 72.9305 109.42 73.7732 108.936C75.986 107.656 76.8365 105.037 76.1081 102.73H84.1485V105.25C84.1485 106.034 84.7824 106.668 85.566 106.668H113.128V103.833H86.9835V71.23H113.125V68.395H85.562C84.7785 68.395 84.1445 69.029 84.1445 69.8125ZM72.3517 106.482C71.1508 107.175 69.5994 106.762 68.9064 105.561L63.0002 95.3315L60.5432 96.745L66.725 107.455L64.5437 108.711C63.3388 109.416 61.7953 108.995 61.0983 107.794L57.1608 100.974L56.1765 99.269L53.7234 100.683L54.7078 102.384L58.6453 109.203L58.6532 109.211L58.9248 109.68L56.7395 110.94C56.1647 111.278 55.4874 111.365 54.8377 111.192C54.188 111.018 53.6486 110.605 53.31 110.03L49.3646 103.199L46.9076 104.612L50.8451 111.432L50.853 111.444L51.1837 112.015L49.5142 113.192C48.4708 113.928 47.0415 113.763 46.2855 112.94L37.5048 100.49C37.2371 100.112 36.8079 99.8872 36.3472 99.8872H31.8545V75.1675H47.762L40.3359 81.6644C39.7847 82.1408 39.4539 82.8338 39.4303 83.5583C39.4027 84.2868 39.6823 84.9995 40.202 85.5153C43.5568 88.87 48.8803 89.1614 52.5815 86.2004L56.5308 83.0386H63.0395L73.2731 103.033C73.9622 104.242 73.5487 105.789 72.3517 106.482ZM74.8402 99.895L65.1658 80.9793C64.9217 80.5068 64.4334 80.2075 63.9058 80.2075H56.0308C55.7079 80.2075 55.3968 80.3178 55.1448 80.5186L50.8057 83.9915C48.2345 86.0468 44.5412 85.85 42.1983 83.8025L54.7393 72.8287C55.9127 71.797 57.4207 71.234 58.9878 71.234L69.4695 71.1907L84.1445 74.8604V99.895H74.8402Z" fill="#F0EBCE" stroke="#F0EBCE"/>
</svg>
