<svg width="151" height="144" viewBox="0 0 151 144" fill="none" xmlns="http://www.w3.org/2000/svg">
	<path d="M96.7506 90.9458H94.1092C94.1092 106.668 106.876 119.247 122.41 119.247C137.944 119.247 150.711 106.48 150.711 90.9458H148.447H148.069L129.076 27.9293H129.642V19.8165H80.399L80.5248 0.19458H80.2732H79.9588H71.0912H70.7768H70.5881L70.7139 19.8165H21.3447V27.9293H21.9107L2.98066 90.9458H2.60332H0.276367C0.276367 106.606 13.0432 119.247 28.5772 119.247C44.1111 119.247 56.8779 106.606 56.8779 90.9458H54.2365H53.6076L34.6775 27.9293L70.5252 28.1809V126.479L70.4623 126.29V126.668H28.4514V143.711H122.473V126.605H80.4619V126.227L80.399 126.416V28.1809L116.247 27.9293L97.2537 90.9458H96.7506ZM47.3814 90.9458H9.77285L28.2627 28.6211L28.4514 28.5583L47.3814 90.9458ZM122.473 28.4954L122.662 28.5583L141.151 90.8829H103.543L122.473 28.4954Z" fill="#F0EBCE"/>
</svg>
