<svg width="157" height="157" viewBox="0 0 157 157" fill="none" xmlns="http://www.w3.org/2000/svg">
    <path d="M119.102 48.724C98.1727 48.724 81.2061 65.6906 81.2061 86.6203H156.999C156.999 65.6906 140.032 48.724 119.102 48.724Z" fill="#E37735"/>
    <path d="M81.2061 156.999H156.999V86.6202H81.2061V156.999Z" fill="#F0EBCE"/>
    <path d="M35.1896 70.3788C15.7542 70.3788 0 86.133 0 105.568H70.3788C70.3791 86.133 54.625 70.3788 35.1896 70.3788Z" fill="#E37735"/>
    <path d="M0 156.999H70.3791V105.568H0V156.999Z" fill="#F0EBCE"/>
    <path d="M100.154 32.4826H46.0166V27.0688C46.0166 12.1187 58.1353 0 73.0854 0C88.0356 0 100.154 12.1187 100.154 27.0688V32.4826Z" fill="#783A13"/>
    <path d="M46.0166 43.31H100.154V32.4825H46.0166V43.31Z" fill="#C44B00"/>
    <path d="M24.3623 156.999H46.0171V124.516H24.3623V156.999Z" fill="#C1500A"/>
    <path d="M100.155 156.999H138.052V124.516H100.155V156.999Z" fill="#C1500A"/>
    <path d="M27.0684 94.7409H43.3098V83.9132H27.0684V94.7409Z" fill="#F0EBCE"/>
    <path d="M29.776 143.465H24.3623C22.8653 143.465 21.6553 142.255 21.6553 140.758C21.6553 139.261 22.8653 138.051 24.3623 138.051H29.776C31.273 138.051 32.483 139.261 32.483 140.758C32.4827 142.255 31.2727 143.465 29.776 143.465Z" fill="#A48164"/>
    <path d="M46.0166 43.3099V72.095C60.1493 76.6643 70.3784 89.9144 70.3784 105.568V156.999H81.2059V86.6202C81.2059 72.6013 88.8366 60.3906 100.154 53.8344V43.3099H46.0166Z" fill="#783A13"/>
    <path d="M100.154 124.516V128.079L133.893 156.999H138.051V153.437L104.312 124.516H100.154Z" fill="#A48164"/>
    <path d="M138.051 128.08V124.517H133.893L100.154 153.435V157H104.312L138.051 128.08Z" fill="#A48164"/>
</svg>
