<svg width="150" height="154" viewBox="0 0 150 154" fill="none" xmlns="http://www.w3.org/2000/svg">
    <path d="M74.953 26.2829C82.2108 26.2829 88.0944 20.3993 88.0944 13.1415C88.0944 5.88363 82.2108 0 74.953 0C67.6952 0 61.8115 5.88363 61.8115 13.1415C61.8115 20.3993 67.6952 26.2829 74.953 26.2829Z" fill="#F0EBCE"/>
    <path d="M149.31 22.8513C148.087 19.8603 144.67 18.4271 141.679 19.6507L116.212 30.0679L91.676 31.1547H58.0917L33.7876 30.0679L8.32008 19.6504C5.32941 18.4274 1.91253 19.86 0.688945 22.851C-0.534335 25.842 0.89859 29.2585 3.88957 30.4821L30.282 41.2778C30.8941 41.5283 31.5444 41.6727 32.2046 41.7061L58.0917 43.0025V78.4409L38.3956 99.6192C34.6274 103.67 36.3175 110.271 41.5613 112.019C78.023 124.17 75.4792 123.393 76.5967 123.531V146.391C76.5967 150.593 80.003 154 84.2049 154C88.4069 154 91.7443 150.593 91.7443 146.391C91.7443 144.605 91.7443 43.0139 91.7443 43.0139L117.794 41.7061C118.455 41.673 119.105 41.5283 119.717 41.2778L146.109 30.4821C149.101 29.2585 150.534 25.8423 149.31 22.8513ZM76.597 107.656L57.5927 101.322C72.531 85.2593 71.536 86.4005 72.0738 85.5763C72.6396 85.5763 76.0306 85.5763 76.5973 85.5763V107.656H76.597Z" fill="#F0EBCE"/>
</svg>
