<svg width="270" height="270" viewBox="0 0 270 270" fill="none" xmlns="http://www.w3.org/2000/svg">
    <g clip-path="url(#clip0_149_14)">
        <path d="M202.5 0V126.562L109.688 84.375V126.562L16.875 84.375V270H253.125V0H202.5Z" fill="#EAEAEA"/>
        <path d="M202.501 0H253.126V16.875H202.501V0ZM202.501 33.75H253.126V50.625H202.501V33.75ZM202.501 67.5H253.126V84.375H202.501V67.5ZM109.688 98.7356L23.5838 59.3409C22.6399 58.9076 21.6199 58.6648 20.582 58.6262C19.5442 58.5877 18.5089 58.7542 17.5355 59.1163C16.5621 59.4784 15.6697 60.0289 14.9093 60.7364C14.149 61.4438 13.5356 62.2943 13.1044 63.2391L9.14721 71.8791C8.28191 73.7876 8.20708 75.961 8.93905 77.9245C9.67102 79.888 11.1503 81.4821 13.0538 82.3584L109.688 126.562V98.7356ZM202.501 98.7356L116.396 59.3409C115.452 58.9076 114.432 58.6648 113.395 58.6262C112.357 58.5877 111.321 58.7542 110.348 59.1163C109.375 59.4784 108.482 60.0289 107.722 60.7364C106.961 61.4438 106.348 62.2943 105.917 63.2391L101.96 71.8706C101.094 73.7791 101.02 75.9526 101.752 77.9161C102.484 79.8796 103.963 81.4736 105.866 82.35L202.501 126.562V98.7356Z" fill="#EF4D4D"/>
        <path d="M92.8125 151.875H126.562V185.625H92.8125V151.875ZM42.1875 151.875H75.9375V185.625H42.1875V151.875ZM143.438 151.875H177.188V185.625H143.438V151.875Z" fill="#469FCC"/>
        <path d="M42.1875 151.875H75.9375V160.312H42.1875V151.875ZM92.8125 151.875H126.562V160.312H92.8125V151.875ZM143.438 151.875H177.188V160.312H143.438V151.875Z" fill="black"/>
        <path d="M109.688 84.1049V92.5424L202.5 135V126.562L109.688 84.1049ZM16.875 92.3652L109.688 134.823V126.385L16.875 83.9277V92.3652Z" fill="black"/>
        <path d="M202.5 0H227.812V270H202.5V0Z" fill="black"/>
        <path d="M62.8172 270C65.8515 264.892 67.468 259.066 67.5 253.125C67.5 244.174 63.9442 235.59 57.6149 229.26C51.2855 222.931 42.7011 219.375 33.75 219.375C24.7989 219.375 16.2145 222.931 9.88515 229.26C3.55579 235.59 0 244.174 0 253.125C0 259.301 1.78031 265.013 4.68281 270H62.8172ZM236.25 219.375C229.781 219.382 223.452 221.252 218.017 224.76C212.583 228.269 208.274 233.268 205.605 239.161C202.048 237.276 198.088 236.277 194.062 236.25C187.349 236.25 180.911 238.917 176.164 243.664C171.417 248.411 168.75 254.849 168.75 261.562C168.75 264.541 169.357 267.351 170.303 270H265.326C268.354 264.889 269.967 259.065 270 253.125C270 244.174 266.444 235.59 260.115 229.26C253.785 222.931 245.201 219.375 236.25 219.375Z" fill="#3AAD73"/>
        <path d="M205.605 239.161C202.048 237.276 198.088 236.277 194.062 236.25C187.349 236.25 180.911 238.917 176.164 243.664C171.417 248.411 168.75 254.849 168.75 261.562C168.75 264.541 169.358 267.351 170.303 270H207.183C204.149 264.892 202.532 259.066 202.5 253.125C202.5 248.13 203.656 243.43 205.605 239.161Z" fill="black"/>
    </g>
    <defs>
        <clipPath id="clip0_149_14">
            <rect width="270" height="270" fill="white"/>
        </clipPath>
    </defs>
</svg>
